HIERARCHY
ROOT Hips
{
  OFFSET 12.5924 87.7646 8.5502
  CHANNELS 6 Xposition Yposition Zposition Zrotation Xrotation Yrotation
  JOINT RightUpLeg
  {
    OFFSET -9.27424 -1.51647 -0.00177081
    CHANNELS 3 Zrotation Xrotation Yrotation
    JOINT RightLeg
    {
      OFFSET -0.0218595 -41.9179 0.0996455
      CHANNELS 3 Zrotation Xrotation Yrotation
      JOINT RightFoot
      {
        OFFSET -0.864559 -41.9626 -0.357059
        CHANNELS 3 Zrotation Xrotation Yrotation
        End Site
        {
          OFFSET 0 -7.69 17.5
        }
      }
    }
  }
  JOINT LeftUpLeg
  {
    OFFSET 9.25718 -1.5867 0.052377
    CHANNELS 3 Zrotation Xrotation Yrotation
    JOINT LeftLeg
    {
      OFFSET 0.0916619 -41.8676 0.000817906
      CHANNELS 3 Zrotation Xrotation Yrotation
      JOINT LeftFoot
      {
        OFFSET -0.467602 -41.8546 0.208385
        CHANNELS 3 Zrotation Xrotation Yrotation
        End Site
        {
          OFFSET 0 -7.69 17.5
        }
      }
    }
  }
  JOINT Spine
  {
    OFFSET 0.0181296 14.2981 0.0454815
    CHANNELS 3 Zrotation Xrotation Yrotation
    JOINT Spine1
    {
      OFFSET 0.0179205 9.71532 0.0144816
      CHANNELS 3 Zrotation Xrotation Yrotation
      JOINT Spine2
      {
        OFFSET 0.0460832 10.1118 -0.00781291
        CHANNELS 3 Zrotation Xrotation Yrotation
        JOINT Spine3
        {
          OFFSET 0.0326005 9.72657 -0.000132442
          CHANNELS 3 Zrotation Xrotation Yrotation
          JOINT Neck
          {
            OFFSET -0.0594321 10.3688 0.0892585
            CHANNELS 3 Zrotation Xrotation Yrotation
            JOINT Head
            {
              OFFSET -0.027184 9.52116 0.11923
              CHANNELS 3 Zrotation Xrotation Yrotation
              End Site
              {
                OFFSET 0 15.95 0
              }
            }
          }
          JOINT RightShoulder
          {
            OFFSET -3.18249 6.94712 0.0315742
            CHANNELS 3 Zrotation Xrotation Yrotation
            JOINT RightArm
            {
              OFFSET -12.6859 -0.0281953 -0.0223312
              CHANNELS 3 Zrotation Xrotation Yrotation
              JOINT RightForeArm
              {
                OFFSET -26.4349 -0.138904 0.103809
                CHANNELS 3 Zrotation Xrotation Yrotation
                JOINT RightHand
                {
                  OFFSET -26.0404 -0.036643 0.02476
                  CHANNELS 3 Zrotation Xrotation Yrotation
                  JOINT RightHandThumb1
                  {
                    OFFSET -2.48905 0.190105 3.12053
                    CHANNELS 3 Zrotation Xrotation Yrotation
                    JOINT RightHandThumb2
                    {
                      OFFSET -3.68274 0 0
                      CHANNELS 3 Zrotation Xrotation Yrotation
                      JOINT RightHandThumb3
                      {
                        OFFSET -2.55832 0 0
                        CHANNELS 3 Zrotation Xrotation Yrotation
                        End Site
                        {
                          OFFSET -2.194 0 0
                        }
                      }
                    }
                  }
                  JOINT RightInHandIndex
                  {
                    OFFSET -3.22368 0.508421 1.97842
                    CHANNELS 3 Zrotation Xrotation Yrotation
                    JOINT RightHandIndex1
                    {
                      OFFSET -5.21684 -0.091368 0.999158
                      CHANNELS 3 Zrotation Xrotation Yrotation
                      JOINT RightHandIndex2
                      {
                        OFFSET -3.61937 0 0
                        CHANNELS 3 Zrotation Xrotation Yrotation
                        JOINT RightHandIndex3
                        {
                          OFFSET -2.0521 0 0
                          CHANNELS 3 Zrotation Xrotation Yrotation
                          End Site
                          {
                            OFFSET -1.805 0 0
                          }
                        }
                      }
                    }
                  }
                  JOINT RightInHandMiddle
                  {
                    OFFSET -3.38211 0.517263 0.756737
                    CHANNELS 3 Zrotation Xrotation Yrotation
                    JOINT RightHandMiddle1
                    {
                      OFFSET -5.17411 -0.084 0.313895
                      CHANNELS 3 Zrotation Xrotation Yrotation
                      JOINT RightHandMiddle2
                      {
                        OFFSET -3.94947 0 0
                        CHANNELS 3 Zrotation Xrotation Yrotation
                        JOINT RightHandMiddle3
                        {
                          OFFSET -2.47579 0 0
                          CHANNELS 3 Zrotation Xrotation Yrotation
                          End Site
                          {
                            OFFSET -1.975 0 0
                          }
                        }
                      }
                    }
                  }
                  JOINT RightInHandRing
                  {
                    OFFSET -3.36516 0.537895 -0.128947
                    CHANNELS 3 Zrotation Xrotation Yrotation
                    JOINT RightHandRing1
                    {
                      OFFSET -4.63474 -0.022105 -0.478947
                      CHANNELS 3 Zrotation Xrotation Yrotation
                      JOINT RightHandRing2
                      {
                        OFFSET -3.44238 0 0
                        CHANNELS 3 Zrotation Xrotation Yrotation
                        JOINT RightHandRing3
                        {
                          OFFSET -2.3881 0 0
                          CHANNELS 3 Zrotation Xrotation Yrotation
                          End Site
                          {
                            OFFSET -1.857 0 0
                          }
                        }
                      }
                    }
                  }
                  JOINT RightInHandPinky
                  {
                    OFFSET -3.16105 0.469368 -1.20179
                    CHANNELS 3 Zrotation Xrotation Yrotation
                    JOINT RightHandPinky1
                    {
                      OFFSET -4.14105 -0.022105 -1.09053
                      CHANNELS 3 Zrotation Xrotation Yrotation
                      JOINT RightHandPinky2
                      {
                        OFFSET -2.75653 0 0
                        CHANNELS 3 Zrotation Xrotation Yrotation
                        JOINT RightHandPinky3
                        {
                          OFFSET -1.74189 0 0
                          CHANNELS 3 Zrotation Xrotation Yrotation
                          End Site
                          {
                            OFFSET -1.645 0 0
                          }
                        }
                      }
                    }
                  }
                }
              }
            }
          }
          JOINT LeftShoulder
          {
            OFFSET 3.21289 6.91298 -0.0113859
            CHANNELS 3 Zrotation Xrotation Yrotation
            JOINT LeftArm
            {
              OFFSET 12.7691 -0.0256594 -0.0399854
              CHANNELS 3 Zrotation Xrotation Yrotation
              JOINT LeftForeArm
              {
                OFFSET 26.4177 -0.0137926 -0.00219879
                CHANNELS 3 Zrotation Xrotation Yrotation
                JOINT LeftHand
                {
                  OFFSET 26.0013 -0.0633708 -0.0119906
                  CHANNELS 3 Zrotation Xrotation Yrotation
                  JOINT LeftHandThumb1
                  {
                    OFFSET 2.48905 0.190105 3.12053
                    CHANNELS 3 Zrotation Xrotation Yrotation
                    JOINT LeftHandThumb2
                    {
                      OFFSET 3.68274 0 0
                      CHANNELS 3 Zrotation Xrotation Yrotation
                      JOINT LeftHandThumb3
                      {
                        OFFSET 2.55832 0 0
                        CHANNELS 3 Zrotation Xrotation Yrotation
                        End Site
                        {
                          OFFSET 2.194 0 0
                        }
                      }
                    }
                  }
                  JOINT LeftInHandIndex
                  {
                    OFFSET 3.22368 0.508421 1.97842
                    CHANNELS 3 Zrotation Xrotation Yrotation
                    JOINT LeftHandIndex1
                    {
                      OFFSET 5.21684 -0.091368 0.999158
                      CHANNELS 3 Zrotation Xrotation Yrotation
                      JOINT LeftHandIndex2
                      {
                        OFFSET 3.61937 0 0
                        CHANNELS 3 Zrotation Xrotation Yrotation
                        JOINT LeftHandIndex3
                        {
                          OFFSET 2.0521 0 0
                          CHANNELS 3 Zrotation Xrotation Yrotation
                          End Site
                          {
                            OFFSET 1.805 0 0
                          }
                        }
                      }
                    }
                  }
                  JOINT LeftInHandMiddle
                  {
                    OFFSET 3.38211 0.517263 0.756737
                    CHANNELS 3 Zrotation Xrotation Yrotation
                    JOINT LeftHandMiddle1
                    {
                      OFFSET 5.17411 -0.084 0.313895
                      CHANNELS 3 Zrotation Xrotation Yrotation
                      JOINT LeftHandMiddle2
                      {
                        OFFSET 3.94947 0 0
                        CHANNELS 3 Zrotation Xrotation Yrotation
                        JOINT LeftHandMiddle3
                        {
                          OFFSET 2.47579 0 0
                          CHANNELS 3 Zrotation Xrotation Yrotation
                          End Site
                          {
                            OFFSET 1.975 0 0
                          }
                        }
                      }
                    }
                  }
                  JOINT LeftInHandRing
                  {
                    OFFSET 3.36516 0.537895 -0.128947
                    CHANNELS 3 Zrotation Xrotation Yrotation
                    JOINT LeftHandRing1
                    {
                      OFFSET 4.63474 -0.022105 -0.478947
                      CHANNELS 3 Zrotation Xrotation Yrotation
                      JOINT LeftHandRing2
                      {
                        OFFSET 3.44238 0 0
                        CHANNELS 3 Zrotation Xrotation Yrotation
                        JOINT LeftHandRing3
                        {
                          OFFSET 2.3881 0 0
                          CHANNELS 3 Zrotation Xrotation Yrotation
                          End Site
                          {
                            OFFSET 1.857 0 0
                          }
                        }
                      }
                    }
                  }
                  JOINT LeftInHandPinky
                  {
                    OFFSET 3.16105 0.469368 -1.20179
                    CHANNELS 3 Zrotation Xrotation Yrotation
                    JOINT LeftHandPinky1
                    {
                      OFFSET 4.14105 -0.022105 -1.09053
                      CHANNELS 3 Zrotation Xrotation Yrotation
                      JOINT LeftHandPinky2
                      {
                        OFFSET 2.75653 0 0
                        CHANNELS 3 Zrotation Xrotation Yrotation
                        JOINT LeftHandPinky3
                        {
                          OFFSET 1.74189 0 0
                          CHANNELS 3 Zrotation Xrotation Yrotation
                          End Site
                          {
                            OFFSET 1.645 0 0
                          }
                        }
                      }
                    }
                  }
                }
              }
            }
          }
        }
      }
    }
  }
}
MOTION
Frames: 3
Frame Time: 0.00833333
3.000231953361897581e+02 -1.091193644402308621e-02 3.819786693856283555e-02 3.680450318080483174e-02 3.678126019454448781e-02 1.524464864748720783e-01 -2.282074145406196297e-01 -2.717088316926457442e-02 -3.459647663337436785e-01 9.219484316628323399e-04 2.236764478002847140e-02 4.862202971890448172e-02 -5.392891459098772371e-03 -1.973563373514215097e-02 -5.108557870286560380e-03 -1.561939995443433205e-01 -1.049909630184336085e-01 -1.904142660353148331e-01 2.376847117099378792e-02 9.527958083961779803e-03 -5.293849218824840663e-02 2.023142567668609684e-02 2.267070688868962763e-02 1.888009608178777476e-03 6.443828990225100584e-02 -2.098447346383081058e-02 -5.387768326422667092e-02 1.320821953753901178e-02 -5.960964577552170171e-03 -1.032716950689925930e-02 2.172264689374498597e-02 -9.744891785266183992e-03 -1.744988494486472003e-02 -4.788656120443484689e-03 -2.190684622715917439e-04 4.210513372366997409e-03 8.248829103913776079e-03 -1.082240587736331113e-03 -2.691456349239251117e-02 -1.352281693265696971e-01 -6.189977077582350939e-02 1.180001082268504614e-01 1.324311424198822834e-02 9.452122323045682520e-03 6.539571714717315465e-02 1.957191344761801677e-01 -1.441485365044161138e-01 1.730973537903641446e-01 -1.340110108826209900e-01 2.649500594141250276e-01 -1.651186229371164327e-01 -2.605813705622919002e-02 8.112559616053779399e-01 -1.305148731401024387e+00 0.000000000000000000e+00 0.000000000000000000e+00 0.000000000000000000e+00 7.340434487460767999e-15 -2.941208615569142805e-15 0.000000000000000000e+00 -7.177500822153902095e-15 -5.528009912311394190e-17 0.000000000000000000e+00 -4.233461090475664950e-16 2.751374889982807846e-16 2.609885584865284350e-16 0.000000000000000000e+00 0.000000000000000000e+00 0.000000000000000000e+00 0.000000000000000000e+00 -4.401231951820252730e-15 -3.829345844993658102e-15 0.000000000000000000e+00 -1.366756759977736509e-15 -2.938170776706567679e-15 -4.233461090475664950e-16 2.751374889982807846e-16 2.609885584865284350e-16 0.000000000000000000e+00 3.540253990401820068e-15 -1.174686386481750199e-15 0.000000000000000000e+00 -3.567256113618420780e-15 -7.441146964427901294e-16 0.000000000000000000e+00 1.422152887105079584e-15 2.546615006415058362e-15 -4.233461090475664950e-16 2.751374889982807846e-16 2.609885584865284350e-16 0.000000000000000000e+00 0.000000000000000000e+00 0.000000000000000000e+00 0.000000000000000000e+00 1.017435874112143683e-17 3.200590907882656351e-15 0.000000000000000000e+00 -9.455219125386059454e-16 -3.394828451472494341e-15 -4.233461090475664950e-16 2.751374889982807846e-16 2.609885584865284350e-16 0.000000000000000000e+00 0.000000000000000000e+00 0.000000000000000000e+00 0.000000000000000000e+00 4.435776037593576250e-15 -6.253815998947534571e-16 0.000000000000000000e+00 -8.255693186149757540e-16 1.393716440180065336e-15 -6.797303931894495277e-02 1.228514866264363570e-01 -1.062283544672743690e-02 1.186379156723148087e+00 -6.791342881507902440e-01 -1.316969928927603339e+00 -1.134870122416725691e-01 -1.547018424808363601e+00 8.319142182472556435e-01 -1.561307287926921195e+00 9.946727970916131589e-01 -1.642246820412856856e+00 0.000000000000000000e+00 0.000000000000000000e+00 0.000000000000000000e+00 -7.968722890139208031e-15 2.577111611874893097e-15 0.000000000000000000e+00 -1.291344332308991023e-14 4.168485346678161225e-15 0.000000000000000000e+00 3.020423451837962340e-15 -6.345253684887242233e-15 1.517485428152752587e-15 0.000000000000000000e+00 0.000000000000000000e+00 0.000000000000000000e+00 0.000000000000000000e+00 -3.489385575234354497e-15 -1.455502835139211593e-14 0.000000000000000000e+00 1.020713326795143085e-15 -9.421970931725812470e-15 3.020423451837962340e-15 -6.345253684887242233e-15 1.517485428152752587e-15 0.000000000000000000e+00 3.303312107328065048e-15 -1.026286823434872095e-15 0.000000000000000000e+00 5.759961186784656991e-16 -4.488153072127110192e-15 0.000000000000000000e+00 3.290236435885986689e-16 -1.303405259342412332e-14 3.020423451837962340e-15 -6.345253684887242233e-15 1.517485428152752587e-15 0.000000000000000000e+00 0.000000000000000000e+00 0.000000000000000000e+00 0.000000000000000000e+00 -7.239690347803359463e-16 -4.794940204825812938e-15 0.000000000000000000e+00 3.776741196305385425e-15 -2.630286632603699617e-16 3.020423451837962340e-15 -6.345253684887242233e-15 1.517485428152752587e-15 0.000000000000000000e+00 0.000000000000000000e+00 0.000000000000000000e+00 0.000000000000000000e+00 -2.163417583221111953e-15 5.372450494548559232e-15 0.000000000000000000e+00 -1.226386351662052088e-15 -1.217226144523056910e-14
3.000175827323174076e+02 -7.112867758236345386e-03 2.103259409037855354e-02 3.625658103738459842e-02 2.368168868381135411e-02 1.189356941377550381e-01 -1.575776441732327504e-01 -2.063164191434840172e-02 -2.451280488229671817e-01 -5.710688899810020987e-03 1.004405189068693569e-02 3.150856634689871982e-02 -8.145598530656448892e-04 -1.304180109458251413e-02 -4.792138107249307132e-03 -9.271728928591696506e-02 -8.043906212555169966e-02 -1.254714254597423528e-01 8.794906631314967221e-03 8.686209676559436153e-04 -3.423554413746701663e-02 1.272973072138675922e-02 2.055461066412749005e-02 -4.717226665011350385e-03 4.402913649345174124e-02 -1.190826628589028088e-02 -3.125073500497201062e-02 9.035565370999346438e-03 -3.065013139005811314e-03 -5.638631495443319035e-03 1.439860220603108795e-02 -5.313385341348267690e-03 -9.515405481601964255e-03 -2.508386152557349601e-03 -1.798245988932719534e-03 3.719504995856286102e-03 3.868056869171463026e-03 -1.957986006698451791e-03 -1.525717795414788074e-02 -7.411257247121301461e-02 -7.817601946331520502e-02 9.860045088401091229e-02 9.945411401221935371e-03 1.552368146782620931e-02 3.086014063340116603e-02 2.173138907684133980e-01 -1.004029596127905544e-01 8.595598981906149572e-02 -3.987183261619452884e-02 1.784605711575870945e-01 -1.227077658964434298e-01 7.806664135724700193e-02 7.866096309944116127e-01 -1.258366993389842925e+00 0.000000000000000000e+00 0.000000000000000000e+00 0.000000000000000000e+00 6.174400774808191000e-15 -2.309550741241804813e-15 0.000000000000000000e+00 -6.465318890121828633e-15 -8.853252076298925609e-16 0.000000000000000000e+00 -7.977973624213662940e-16 2.606499756106220532e-15 -2.173074319998162288e-16 0.000000000000000000e+00 0.000000000000000000e+00 0.000000000000000000e+00 0.000000000000000000e+00 -4.429321745309087969e-15 -2.020072960685959094e-15 0.000000000000000000e+00 -1.052829323894870869e-15 -3.696052304639825197e-15 -7.977973624213662940e-16 2.606499756106220532e-15 -2.173074319998162288e-16 0.000000000000000000e+00 3.895365189497369491e-15 -3.409763113151069037e-16 0.000000000000000000e+00 -2.821145761909106966e-15 -1.736662929388171874e-15 0.000000000000000000e+00 9.537373984495702794e-16 9.921027134467938101e-16 -7.977973624213662940e-16 2.606499756106220532e-15 -2.173074319998162288e-16 0.000000000000000000e+00 0.000000000000000000e+00 0.000000000000000000e+00 0.000000000000000000e+00 1.209785129482772867e-15 3.637229491278027471e-15 0.000000000000000000e+00 1.118695322256084695e-17 3.592950551834759748e-16 -7.977973624213662940e-16 2.606499756106220532e-15 -2.173074319998162288e-16 0.000000000000000000e+00 0.000000000000000000e+00 0.000000000000000000e+00 0.000000000000000000e+00 4.524920995994933453e-15 1.191382407672472806e-15 0.000000000000000000e+00 -2.371177847127458169e-16 2.458311067042844169e-15 -6.376267248431045920e-02 1.189157018445003017e-01 -2.563367607372012830e-02 1.192384513806113988e+00 -5.158742713990901452e-01 -1.294404398264277445e+00 -2.157449347168558240e-01 -1.800063576501713891e+00 8.440125135681108004e-01 -1.863418374283517309e+00 1.143688731037759254e+00 -1.756158658315150722e+00 0.000000000000000000e+00 0.000000000000000000e+00 0.000000000000000000e+00 -4.442360134078630819e-15 3.037484854609442578e-15 0.000000000000000000e+00 -1.060778380123221008e-14 4.498975818122348888e-15 0.000000000000000000e+00 2.830882610848879302e-15 -7.697265459248466187e-15 2.761463030473820977e-15 0.000000000000000000e+00 0.000000000000000000e+00 0.000000000000000000e+00 0.000000000000000000e+00 -2.062029446285292456e-15 -1.300044688671582989e-14 0.000000000000000000e+00 1.906437222416803553e-15 -8.755965636409858681e-15 2.830882610848879302e-15 -7.697265459248466187e-15 2.761463030473820977e-15 0.000000000000000000e+00 4.328006704705585766e-15 -1.377791678579858227e-15 0.000000000000000000e+00 7.657976225478373867e-16 -4.744235993498959302e-15 0.000000000000000000e+00 9.222426703733664720e-17 -1.145617500460077251e-14 2.830882610848879302e-15 -7.697265459248466187e-15 2.761463030473820977e-15 0.000000000000000000e+00 0.000000000000000000e+00 0.000000000000000000e+00 0.000000000000000000e+00 5.568166767889053483e-16 -1.640540144607973999e-15 0.000000000000000000e+00 2.529276057359553050e-15 -1.903718990942018529e-15 2.830882610848879302e-15 -7.697265459248466187e-15 2.761463030473820977e-15 0.000000000000000000e+00 0.000000000000000000e+00 0.000000000000000000e+00 0.000000000000000000e+00 -2.051372103514032236e-15 3.668703116852419810e-15 0.000000000000000000e+00 -2.181687465131180686e-15 -1.252962911793186722e-14
3.000078935420943367e+02 -3.698027914073309230e-03 5.467469315213086510e-03 2.808885089964967621e-02 1.021446359439352400e-02 7.702265161479379674e-02 -8.969645152334917992e-02 -1.191796903822143518e-02 -1.408085402825555721e-01 -8.161387053169204264e-03 -3.408485757542534505e-04 1.149474648958788078e-02 3.409418113008340964e-03 -5.179181603210233215e-03 1.051080016823105652e-04 -4.323256340856854174e-02 -4.931672030621121749e-02 -7.511060360997506846e-02 -3.947154512934617984e-03 -1.805365879448043434e-03 -1.674768953053292972e-02 4.742701929753287589e-03 9.900229945236734344e-03 7.278645902017782335e-04 2.241561825295429120e-02 -5.068940128266827792e-03 -1.992636153609978616e-02 4.629316324874615564e-03 -1.319363934343662165e-03 -3.981477698134151810e-03 6.713630925506005979e-03 -2.262461179554098051e-03 -6.707696375393644092e-03 -5.717414020780192761e-04 -1.860920511335567486e-03 2.751526577603170386e-03 3.704928959726714243e-04 -1.645656322476660291e-03 -3.739523302625250619e-03 -2.101312838999761651e-02 -6.485979878759937090e-02 6.681565150283266807e-02 2.512664617278317827e-03 2.066112908095715101e-02 7.808919647376651521e-03 1.799954244687681226e-01 -7.402655319355549990e-02 9.287237313080135004e-03 5.365426601913153570e-02 1.071723664204637660e-01 -4.799579969465425644e-02 1.483925216135398850e-01 6.774955229540599033e-01 -1.095974751103850675e+00 0.000000000000000000e+00 0.000000000000000000e+00 0.000000000000000000e+00 4.625413173553113705e-15 -1.129003515821599977e-15 0.000000000000000000e+00 -3.110039467493983400e-15 -7.790241713212433336e-16 0.000000000000000000e+00 -5.958389770300858351e-16 3.685751647272172717e-15 -5.789044861262092651e-16 0.000000000000000000e+00 0.000000000000000000e+00 0.000000000000000000e+00 0.000000000000000000e+00 -3.457157925819631542e-15 1.463119392764595642e-16 0.000000000000000000e+00 -2.774421904205035165e-16 -3.526780036936656759e-15 -5.958389770300858351e-16 3.685751647272172717e-15 -5.789044861262092651e-16 0.000000000000000000e+00 3.823916611300579829e-15 2.970128334663378961e-16 0.000000000000000000e+00 -1.560643896226120137e-15 -1.874165612736347306e-15 0.000000000000000000e+00 -5.294346534056894865e-17 8.910431418408886493e-17 -5.958389770300858351e-16 3.685751647272172717e-15 -5.789044861262092651e-16 0.000000000000000000e+00 0.000000000000000000e+00 0.000000000000000000e+00 0.000000000000000000e+00 2.496117459665271413e-15 3.698305966838934043e-15 0.000000000000000000e+00 6.930094859096414144e-16 2.795971380831988030e-15 -5.958389770300858351e-16 3.685751647272172717e-15 -5.789044861262092651e-16 0.000000000000000000e+00 0.000000000000000000e+00 0.000000000000000000e+00 0.000000000000000000e+00 3.612733887383424034e-15 1.558658559169418048e-15 0.000000000000000000e+00 4.277924628081109710e-16 2.908437703524298418e-15 -4.870554089849708779e-02 9.882713072897826578e-02 -2.800472508704441449e-02 1.154108798044156448e+00 -3.250144203176135171e-01 -1.249832247099706972e+00 -2.747450662612031524e-01 -1.713781860189206974e+00 6.982919304248634829e-01 -1.560292010074864288e+00 9.777277434013075252e-01 -1.350299936272706391e+00 0.000000000000000000e+00 0.000000000000000000e+00 0.000000000000000000e+00 4.534549546384844705e-16 1.743927896292046586e-15 0.000000000000000000e+00 -7.806516209959641464e-15 2.927296062017254575e-15 0.000000000000000000e+00 1.663103967658369567e-15 -6.195618430253874935e-15 3.586373822042600736e-15 0.000000000000000000e+00 0.000000000000000000e+00 0.000000000000000000e+00 0.000000000000000000e+00 1.952798094596311424e-16 -9.324272548183361296e-15 0.000000000000000000e+00 2.058761360997595573e-15 -6.100251720063264437e-15 1.663103967658369567e-15 -6.195618430253874935e-15 3.586373822042600736e-15 0.000000000000000000e+00 5.082435922704264638e-15 -1.340710467317589092e-15 0.000000000000000000e+00 1.198542348043831950e-15 -4.481981090949884880e-15 0.000000000000000000e+00 3.900990354034754771e-16 -7.137805381665439159e-15 1.663103967658369567e-15 -6.195618430253874935e-15 3.586373822042600736e-15 0.000000000000000000e+00 0.000000000000000000e+00 0.000000000000000000e+00 0.000000000000000000e+00 1.519874194460044055e-15 1.198132839487294929e-15 0.000000000000000000e+00 1.159320083403261176e-15 -1.797980558812187659e-15 1.663103967658369567e-15 -6.195618430253874935e-15 3.586373822042600736e-15 0.000000000000000000e+00 0.000000000000000000e+00 0.000000000000000000e+00 0.000000000000000000e+00 -2.067931685756686574e-15 1.198973620987707274e-15 0.000000000000000000e+00 -2.484429947250511332e-15 -1.082486920605150550e-14
